<?xml version="1.0" ?><!DOCTYPE svg  PUBLIC '-//W3C//DTD SVG 1.1//EN'  'http://www.w3.org/Graphics/SVG/1.1/DTD/svg11.dtd'><svg height="512px" style="enable-background:new 0 0 512 512;" version="1.1" viewBox="0 0 512 512" width="512px" xml:space="preserve" xmlns="http://www.w3.org/2000/svg" xmlns:xlink="http://www.w3.org/1999/xlink"><g id="viber__x2C__social__x2C__media__x2C__icons_x2C_"><g><path d="M425.681,86.344C382.233,42.91,322.187,16.066,256.029,16.066    c-66.293,0-126.344,26.844-169.785,70.277c-43.315,43.447-70.282,103.494-70.282,169.654c0,66.297,26.967,126.211,70.282,169.659    c43.44,43.438,103.492,70.276,169.785,70.276c66.158,0,126.205-26.839,169.652-70.276    c43.311-43.448,70.282-103.362,70.282-169.659C495.963,189.838,468.991,129.791,425.681,86.344z M412.394,412.498    c-39.988,39.988-95.389,64.702-156.365,64.702c-61.114,0-116.514-24.714-156.502-64.702    c-39.989-40.121-64.698-95.385-64.698-156.5c0-61.107,24.709-116.375,64.698-156.363C139.515,59.646,194.915,34.8,256.029,34.8    c60.976,0,116.376,24.847,156.365,64.835c39.989,39.988,64.836,95.256,64.836,156.363    C477.229,317.113,452.383,372.377,412.394,412.498z" style="fill:#262626;"/><path d="M266.055,159.023C320.121,167.253,343,192.492,353,245.772c0,0.534,0,0.932,0,1.32    c0,4.916-1.648,11.299,4.854,11.299c5.715,0.133,5.416-4.116,5.416-8.237c-0.265-1.458-0.548-2.655-0.548-3.848    c0.662-50.36-44.243-97.115-96.057-98.715c-4.116,0.662-11.6-2.659-12.26,5.977C254.268,159.289,261.531,158.484,266.055,159.023z    " style="fill:#262626;"/><path d="M347.961,304.489c-6.776-5.318-14.22-10.098-21.123-15.014    c-14.215-9.568-27.236-10.354-37.731,5.181c-5.977,8.773-14.352,9.171-22.982,5.314c-24.047-10.495-42.513-26.834-53.406-50.882    c-1.597-3.719-2.657-7.301-2.792-10.622c-0.4-6.379,2.257-11.953,9.435-16.874c5.976-3.852,11.82-8.503,11.422-17.139    c-0.53-11.29-28.433-48.89-39.586-53.011c-4.521-1.595-9.038-1.324-13.687,0c-25.907,8.631-36.534,29.366-26.307,53.938    c5.846,13.821,12.092,26.706,19.531,38.791c31.753,53.144,78.515,91.939,138.831,117.312c4.117,1.727,8.769,2.526,11.29,3.057    c16.874,0.265,36.535-15.81,42.251-31.49C368.686,317.776,356.998,311.933,347.961,304.489z" style="fill:#262626;"/><path d="M275.555,173.636c-5.314-0.672-12.09-2.929-13.282,4.112c-1.327,7.306,6.241,6.78,11.157,7.84    c33.482,7.311,44.905,19.259,50.484,51.686c0.26,1.33,0.401,3.053,0.401,4.515c0.397,3.852,1.325,7.301,7.169,6.246    c2.925-0.402,3.989-1.992,4.121-4.249c0.398-1.997,0-4.656,0.266-6.512C336.004,206.044,308.768,177.748,275.555,173.636z" style="fill:#262626;"/><path d="M278.611,199.272c-3.454,0-6.908,0.397-8.238,4.122c-1.992,5.313,2.129,6.771,6.241,7.434    c13.689,1.996,20.862,9.97,22.325,23.252c0.132,1.859,0.799,3.321,1.594,4.523c1.197,1.315,2.655,1.854,4.515,1.723    c1.197,0,2.125-0.407,2.92-0.8c2.267-1.728,2.659-4.917,2.394-8.238C310.627,216.283,293.355,198.87,278.611,199.272z" style="fill:#262626;"/></g></g><g id="Layer_1"/></svg>