<svg id="email_social" width="54" height="54" viewBox="0 0 54 54" fill="none" xmlns="http://www.w3.org/2000/svg">
  <g clip-path="url(#clip0_2729_7784)">
    <path d="M39.8478 14.1522C36.5252 10.8298 32.1078 9 27.4091 9C22.7104 9 18.2929 10.8298 14.9704 14.1522C11.648 17.4748 9.81818 21.8922 9.81818 26.5909C9.81818 31.2896 11.648 35.7071 14.9704 39.0296C18.2929 42.352 22.7104 44.1818 27.4091 44.1818C29.7834 44.1818 32.0873 43.7166 34.2566 42.799L33.4088 40.7947C31.5092 41.5982 29.4905 42.0056 27.4091 42.0056C18.9094 42.0056 11.9944 35.0906 11.9944 26.5909C11.9944 18.0912 18.9094 11.1762 27.4091 11.1762C35.9088 11.1762 42.8238 18.0912 42.8238 26.5909C42.8238 30.3139 40.5363 32.0096 38.4109 32.0096C36.2856 32.0096 33.9981 30.3139 33.9981 26.5909C33.9981 22.9577 31.0423 20.0019 27.4091 20.0019C23.7759 20.0019 20.8201 22.9578 20.8201 26.5909C20.8201 30.2241 23.7759 33.1799 27.4091 33.1799C29.5603 33.1799 31.4738 32.1436 32.6771 30.5442C32.9852 31.1664 33.373 31.7292 33.8406 32.2208C35.0457 33.4879 36.6688 34.1857 38.4109 34.1857C40.1531 34.1857 41.7762 33.4879 42.9813 32.2208C44.3019 30.8323 45 28.8855 45 26.5909C45 21.8922 43.1702 17.4748 39.8478 14.1522ZM27.4091 31.0037C24.9759 31.0037 22.9963 29.0241 22.9963 26.5909C22.9963 24.1577 24.9759 22.1781 27.4091 22.1781C29.8423 22.1781 31.8219 24.1577 31.8219 26.5909C31.8219 29.0241 29.8423 31.0037 27.4091 31.0037Z"
          fill="#2B74CA"/>
  </g>
  <circle cx="27" cy="27" r="26" stroke="#2B74CA" stroke-width="2"/>
  <defs>
    <clipPath id="clip0_2729_7784">
      <rect width="35.1818" height="35.1818" fill="white" transform="translate(9.81818 9)"/>
    </clipPath>
  </defs>
</svg>
