<svg id="viber_social" width="57" height="57" viewBox="0 0 57 57" fill="none" xmlns="http://www.w3.org/2000/svg">
  <path d="M47.3902 9.61249C42.5532 4.77707 35.8684 1.78857 28.5032 1.78857C21.1229 1.78857 14.4375 4.77707 9.60134 9.61238C4.77916 14.4493 1.77698 21.1342 1.77698 28.4996C1.77698 35.8804 4.77916 42.5505 9.60134 47.3875C14.4374 52.2233 21.1229 55.2111 28.5032 55.2111C35.8684 55.2111 42.5534 52.2232 47.3902 47.3875C52.212 42.5505 55.2146 35.8804 55.2146 28.4996C55.2146 21.1343 52.2119 14.4494 47.3902 9.61249ZM45.911 45.9226C41.4592 50.3744 35.2915 53.1258 28.5032 53.1258C21.6995 53.1258 15.5319 50.3744 11.0801 45.9226C6.62821 41.456 3.87741 35.3036 3.87741 28.4998C3.87741 21.6968 6.62821 15.5439 11.0801 11.0922C15.5319 6.64025 21.6995 3.87419 28.5032 3.87419C35.2915 3.87419 41.4591 6.64036 45.911 11.0922C50.3629 15.5439 53.1291 21.6968 53.1291 28.4998C53.129 35.3036 50.3629 41.456 45.911 45.9226Z"
        fill="#826CB4"/>
  <path d="M30.5339 14.5974C38.109 15.8486 41.3145 19.6854 42.7156 27.7851C42.7156 27.8663 42.7156 27.9268 42.7156 27.9857C42.7156 28.7331 42.4847 29.7034 43.3957 29.7034C44.1964 29.7236 44.1545 29.0777 44.1545 28.4512C44.1174 28.2296 44.0777 28.0476 44.0777 27.8663C44.1705 20.2105 37.8789 13.1028 30.6194 12.8595C30.0427 12.9602 28.9941 12.4553 28.9016 13.7682C28.8824 14.6379 29.9 14.5155 30.5339 14.5974Z"
        fill="#826CB4"/>
  <path d="M41.7624 35.6018C40.7857 34.8444 39.7126 34.1636 38.7175 33.4634C36.6684 32.1007 34.7914 31.9888 33.2786 34.2013C32.417 35.4508 31.2097 35.5075 29.9657 34.9582C26.4993 33.4634 23.8374 31.1364 22.2671 27.7114C22.0369 27.1817 21.8841 26.6715 21.8647 26.1985C21.807 25.29 22.19 24.4961 23.2247 23.7953C24.0862 23.2466 24.9286 22.5842 24.8712 21.3542C24.7948 19.7463 20.7726 14.3911 19.1649 13.8042C18.5131 13.577 17.862 13.6156 17.1919 13.8042C13.4573 15.0334 11.9254 17.9866 13.3997 21.4863C14.2424 23.4547 15.1428 25.2899 16.2151 27.0111C20.7923 34.5801 27.5331 40.1054 36.2277 43.7191C36.8212 43.9651 37.4918 44.0789 37.8552 44.1545C40.2876 44.1923 43.1218 41.9028 43.9457 39.6696C44.75 37.4942 43.0651 36.662 41.7624 35.6018Z"
        fill="#826CB4"/>
  <path d="M31.6055 16.9807C30.8535 16.8878 29.8946 16.5757 29.726 17.5493C29.5382 18.5596 30.6091 18.4869 31.3048 18.6335C36.0428 19.6445 37.6593 21.2967 38.4487 25.7808C38.4855 25.9647 38.5055 26.203 38.5055 26.4052C38.5617 26.9378 38.693 27.4148 39.52 27.2689C39.9339 27.2133 40.0845 26.9934 40.1031 26.6813C40.1595 26.4052 40.1031 26.0375 40.1408 25.7808C40.1596 21.4622 36.3054 17.5493 31.6055 16.9807Z"
        fill="#826CB4"/>
  <path d="M31.7195 20.874C31.2411 20.874 30.7628 20.9283 30.5786 21.4379C30.3027 22.1647 30.8734 22.3641 31.4429 22.4548C33.3387 22.7279 34.3321 23.8187 34.5347 25.6357C34.553 25.89 34.6454 26.09 34.7555 26.2544C34.9212 26.4343 35.1231 26.5081 35.3807 26.4902C35.5465 26.4902 35.675 26.4345 35.7851 26.3807C36.0991 26.1443 36.1534 25.7081 36.1167 25.2538C36.1534 23.2011 33.7614 20.819 31.7195 20.874Z"
        fill="#826CB4"/>
</svg>
