<svg id="vk_social" width="54" height="54" viewBox="0 0 54 54" fill="none" xmlns="http://www.w3.org/2000/svg">
  <path d="M53 27C53 41.3594 41.3594 53 27 53C12.6406 53 1 41.3594 1 27C1 12.6406 12.6406 1 27 1C41.3594 1 53 12.6406 53 27Z"
        stroke="#4D76A1" stroke-width="2"/>
  <path id="vk_title_social" fill-rule="evenodd" clip-rule="evenodd"
        d="M25.977 38.8441H28.0969C28.0969 38.8441 28.7402 38.7703 29.0672 38.4222C29.3731 38.0953 29.3625 37.4941 29.3625 37.4941C29.3625 37.4941 29.3203 34.6464 30.6387 34.2351C31.9359 33.8238 33.6129 36.9773 35.3848 38.2007C36.7242 39.1183 37.7367 38.9179 37.7367 38.9179L42.4723 38.8546C42.4723 38.8546 44.9508 38.707 43.7695 36.7558C43.6746 36.5976 43.084 35.3109 40.2469 32.6847C37.2832 29.932 37.6734 30.375 41.2488 25.6078C43.432 22.7074 44.2969 20.9355 44.0227 20.1761C43.759 19.4484 42.1664 19.6488 42.1664 19.6488L36.8297 19.6804C36.8297 19.6804 36.4395 19.6277 36.1441 19.7964C35.8594 19.9652 35.6695 20.366 35.6695 20.366C35.6695 20.366 34.8258 22.6125 33.6973 24.5214C31.3242 28.5503 30.375 28.7613 29.9848 28.5187C29.0777 27.9281 29.3098 26.1773 29.3098 24.9222C29.3098 21.0199 29.9004 19.3851 28.1602 18.9632C27.5801 18.8261 27.1582 18.7312 25.6711 18.7207C23.7727 18.6996 22.159 18.7207 21.2414 19.1742C20.6402 19.4695 20.1656 20.1339 20.4504 20.1656C20.7984 20.2078 21.6 20.3871 22.0219 20.9566C22.5703 21.6949 22.5492 23.3718 22.5492 23.3718C22.5492 23.3718 22.8656 27.9703 21.8109 28.5398C21.0938 28.93 20.1023 28.1285 17.993 24.4793C16.9066 22.6019 16.0945 20.5347 16.0945 20.5347C16.0945 20.5347 15.9363 20.1445 15.6516 19.9441C15.3035 19.691 14.8289 19.6171 14.8289 19.6171L9.76641 19.6488C9.76641 19.6488 9.00704 19.6699 8.72227 19.9968C8.47969 20.2921 8.70118 20.9039 8.70118 20.9039C8.70118 20.9039 12.6668 30.1851 17.1598 34.8574C21.3047 39.1289 25.977 38.8441 25.977 38.8441Z"
        fill="#4D76A1"/>
</svg>
