<svg id="whatsapp_social" width="54" height="54" viewBox="0 0 54 54" fill="none" xmlns="http://www.w3.org/2000/svg">
<path d="M27 53C12.6429 53 1 41.3571 1 27C1 12.6429 12.6429 1 27 1C41.3571 1 53 12.6429 53 27C53 41.3571 41.3571 53 27 53Z" stroke="#25D366" stroke-width="2"/>
<path fill-rule="evenodd" clip-rule="evenodd" d="M40.1168 12.4595C36.7688 9.10611 32.3084 7.25931 27.5618 7.25391C17.7824 7.25391 9.81743 15.2135 9.81743 24.9983C9.81743 28.1249 10.6328 31.1813 12.188 33.8705L9.67163 43.0667L19.0784 40.5989C21.6704 42.0137 24.5864 42.7589 27.5564 42.7589H27.5618C37.3412 42.7589 45.3008 34.7993 45.3062 25.0145C45.3116 20.2733 43.4702 15.8129 40.1168 12.4595ZM27.5672 39.7619H27.5618C24.9158 39.7619 22.3184 39.0491 20.0558 37.7045L19.5158 37.3859L13.9322 38.8493L15.4226 33.4061L15.0716 32.8499C13.5974 30.5009 12.8144 27.7901 12.8144 24.9983C12.8198 16.8659 19.4348 10.2509 27.5726 10.2509C31.5146 10.2509 35.2136 11.7899 38 14.5763C40.7864 17.3627 42.32 21.0725 42.3146 25.0091C42.3146 33.1469 35.6942 39.7619 27.5672 39.7619ZM35.6564 28.7135C35.2136 28.4921 33.032 27.4175 32.627 27.2717C32.222 27.1259 31.925 27.0503 31.628 27.4931C31.331 27.9359 30.4832 28.9349 30.224 29.2319C29.9648 29.5289 29.7056 29.5667 29.2628 29.3453C28.82 29.1239 27.389 28.6541 25.6988 27.1421C24.3812 25.9649 23.4902 24.5123 23.231 24.0695C22.9718 23.6267 23.204 23.3837 23.4254 23.1623C23.6252 22.9625 23.8682 22.6439 24.0896 22.3847C24.311 22.1255 24.3866 21.9419 24.5324 21.6449C24.6782 21.3479 24.608 21.0887 24.4946 20.8673C24.3812 20.6459 23.4956 18.4643 23.1284 17.5733C22.7666 16.7093 22.4048 16.8281 22.1294 16.8119C21.8702 16.8011 21.5732 16.7957 21.2816 16.7957C20.9846 16.7957 20.504 16.9091 20.099 17.3519C19.694 17.7947 18.5492 18.8693 18.5492 21.0509C18.5492 23.2325 20.1368 25.3439 20.3582 25.6355C20.5796 25.9325 23.4848 30.4091 27.9344 32.3315C28.9928 32.7905 29.819 33.0605 30.4616 33.2657C31.5254 33.6059 32.492 33.5573 33.2534 33.4439C34.1066 33.3143 35.8778 32.3693 36.245 31.3379C36.6122 30.3011 36.6122 29.4155 36.5042 29.2319C36.3962 29.0483 36.0992 28.9403 35.6564 28.7135Z" fill="#25D366"/>
</svg>
