<svg width="25" height="25" viewBox="0 0 25 25" fill="none" xmlns="http://www.w3.org/2000/svg">
  <g clip-path="url(#clip0_2915_8158)">
    <path d="M8.30791 3.00146C8.25374 2.83463 8.11895 2.7062 7.94958 2.65992L5.81564 2.07729L4.60206 0.227921C4.4098 -0.0655568 3.92355 -0.0655568 3.73129 0.227921L2.51796 2.07729L0.383765 2.65992C0.214392 2.7062 0.0796064 2.83463 0.0254377 3.00146C-0.028731 3.16854 0.00483831 3.35139 0.114447 3.48821L1.49867 5.21398L1.39313 7.42346C1.38474 7.59893 1.46536 7.76652 1.60727 7.86978C1.69755 7.93539 1.80512 7.96921 1.91346 7.96921C1.97551 7.96921 2.03807 7.95802 2.09784 7.93539L4.16667 7.15236L6.23576 7.93539C6.3998 7.9977 6.58443 7.97303 6.72633 7.86978C6.86824 7.76652 6.94886 7.59893 6.94047 7.42346L6.83493 5.21398L8.2189 3.48821C8.32851 3.35139 8.36208 3.16829 8.30791 3.00146ZM5.8988 4.71604C5.81945 4.81497 5.77902 4.93983 5.78487 5.06674L5.86192 6.68035L4.35105 6.1084C4.29154 6.08577 4.22923 6.07458 4.16667 6.07458C4.10411 6.07458 4.0418 6.08577 3.9823 6.1084L2.47168 6.6801L2.54873 5.06674C2.55484 4.93983 2.51415 4.81497 2.4348 4.71604L1.42391 3.45592L2.98234 3.03045C3.10492 2.99688 3.21096 2.91983 3.28065 2.81352L4.16667 1.46312L5.05295 2.81352C5.12264 2.91983 5.22868 2.99688 5.35126 3.03045L6.90944 3.45592L5.8988 4.71604Z"
          fill="white"/>
    <path d="M19.2709 2.59668H10.4167V3.63835H19.2709V2.59668Z" fill="white"/>
    <path d="M25.0001 5.20117H10.4167V6.24284H25.0001V5.20117Z" fill="white"/>
    <path d="M8.30791 11.5129C8.25348 11.3461 8.11895 11.2177 7.94958 11.1714L5.81564 10.589L4.60206 8.73964C4.4098 8.44616 3.92355 8.44616 3.73129 8.73964L2.51796 10.589L0.383765 11.1714C0.214392 11.2177 0.0798607 11.3461 0.0254377 11.5129C-0.028731 11.6798 0.00483831 11.8629 0.114447 11.9997L1.49867 13.7254L1.39313 15.9349C1.38474 16.1104 1.46536 16.278 1.60727 16.3812C1.74892 16.484 1.93355 16.5087 2.09784 16.4469L4.16667 15.6638L6.23576 16.4469C6.29553 16.4695 6.35809 16.4807 6.42014 16.4807C6.52848 16.4807 6.63605 16.4469 6.72633 16.3812C6.86824 16.278 6.94886 16.1104 6.94047 15.9349L6.83493 13.7254L8.2189 11.9997C8.32851 11.8629 8.36208 11.6798 8.30791 11.5129ZM5.8988 13.2275C5.81945 13.3264 5.77902 13.4513 5.78487 13.5782L5.86192 15.1918L4.35105 14.6199C4.29154 14.5972 4.22923 14.586 4.16667 14.586C4.10411 14.586 4.0418 14.5972 3.9823 14.6199L2.47168 15.1916L2.54873 13.5782C2.55484 13.4513 2.51415 13.3264 2.4348 13.2275L1.42391 11.9674L2.98234 11.5422C3.10492 11.5086 3.21096 11.4315 3.28065 11.3252L4.16667 9.97484L5.05295 11.3252C5.12264 11.4315 5.22868 11.5086 5.35126 11.5422L6.90944 11.9674L5.8988 13.2275Z"
          fill="white"/>
    <path d="M19.2709 10.9297H10.4167V11.9714H19.2709V10.9297Z" fill="white"/>
    <path d="M25.0001 13.5342H10.4167V14.5758H25.0001V13.5342Z" fill="white"/>
    <path d="M8.30791 20.0249C8.25348 19.8581 8.11895 19.7296 7.94958 19.6834L5.81564 19.101L4.60206 17.2514C4.4098 16.9579 3.92355 16.9579 3.73129 17.2514L2.51796 19.101L0.383765 19.6834C0.214392 19.7296 0.0798607 19.8581 0.0254377 20.0249C-0.028731 20.1917 0.00483831 20.3748 0.114447 20.5117L1.49867 22.2374L1.39313 24.4469C1.38474 24.6224 1.46536 24.79 1.60727 24.8932C1.74892 24.9965 1.93355 25.0206 2.09784 24.9588L4.16667 24.1758L6.23576 24.9588C6.29553 24.9815 6.35809 24.9927 6.42014 24.9927C6.52848 24.9927 6.63605 24.9588 6.72633 24.8932C6.86824 24.79 6.94886 24.6224 6.94047 24.4469L6.83493 22.2374L8.2189 20.5117C8.32851 20.3748 8.36208 20.1917 8.30791 20.0249ZM5.8988 21.7395C5.81945 21.8384 5.77902 21.9633 5.78487 22.0902L5.86192 23.7038L4.35105 23.1318C4.29154 23.1092 4.22923 23.098 4.16667 23.098C4.10411 23.098 4.0418 23.1092 3.9823 23.1318L2.47168 23.7035L2.54873 22.0902C2.55484 21.9633 2.51415 21.8384 2.4348 21.7395L1.42391 20.4794L2.98234 20.0541C3.10492 20.0206 3.21096 19.9435 3.28065 19.8372L4.16667 18.4866L5.05295 19.8372C5.12264 19.9435 5.22868 20.0206 5.35126 20.0541L6.90944 20.4794L5.8988 21.7395Z"
          fill="white"/>
    <path d="M19.2709 19.7842H10.4167V20.8258H19.2709V19.7842Z" fill="white"/>
    <path d="M25.0001 22.3887H10.4167V23.4303H25.0001V22.3887Z" fill="white"/>
  </g>
  <defs>
    <clipPath id="clip0_2915_8158">
      <rect width="25" height="25" fill="white"/>
    </clipPath>
  </defs>
</svg>
