<svg width="36" height="37" viewBox="0 0 36 37" fill="none" xmlns="http://www.w3.org/2000/svg">
<rect y="0.96582" width="36" height="35.6949" rx="13" fill="#F50000"/>
<g clip-path="url(#clip0_2942_7790)">
<path d="M26.194 7.88325H20.8425V7.35415C20.8425 6.56554 20.2033 5.92383 19.4176 5.92383H16.5825C15.7967 5.92383 15.1574 6.56554 15.1574 7.35423V7.88333H9.80593C9.01198 7.88333 8.36603 8.51841 8.36603 9.29892V10.2343C8.36603 10.8209 8.73085 11.3252 9.24904 11.5397C9.41321 14.7825 10.3633 30.4606 10.4061 31.1651C10.4244 31.4675 10.6771 31.7036 10.9828 31.7036H25.0173C25.3229 31.7036 25.5757 31.4675 25.594 31.1651C25.6367 30.4607 26.5867 14.7825 26.751 11.5397C27.2692 11.3252 27.634 10.8209 27.634 10.2343V9.29884C27.634 8.51833 26.9881 7.88325 26.194 7.88325ZM16.3129 7.35423C16.3129 7.19726 16.4339 7.06959 16.5825 7.06959H19.4176C19.5662 7.06959 19.687 7.19726 19.687 7.35423V7.88333H16.313V7.35423H16.3129ZM9.52142 9.29884C9.52142 9.15005 9.64902 9.02901 9.80577 9.02901H26.1939C26.3507 9.02901 26.4783 9.14997 26.4783 9.29884V10.2342C26.4783 10.3831 26.3507 10.5042 26.1939 10.5042H9.80585C9.64911 10.5042 9.5215 10.3831 9.5215 10.2342V9.29884H9.52142ZM24.4729 30.5577H11.5267C11.3571 27.7549 10.5792 14.8711 10.4116 11.6499H25.5879C25.4203 14.8711 24.6425 27.7549 24.4729 30.5577Z" fill="#670000"/>
<path d="M18 13.709C17.6809 13.709 17.4222 13.9655 17.4222 14.2819V28.6947C17.4222 29.0111 17.6809 29.2675 18 29.2675C18.3191 29.2675 18.5777 29.0111 18.5777 28.6947V14.2819C18.5777 13.9655 18.3191 13.709 18 13.709Z" fill="#670000"/>
<path d="M14.0959 14.2745C14.0792 13.9586 13.8064 13.715 13.4888 13.7323C13.1702 13.7488 12.9253 14.0183 12.942 14.3343L13.6998 28.7241C13.7159 29.0299 13.971 29.2671 14.2763 29.2671C14.2865 29.2671 14.2967 29.2669 14.3069 29.2663C14.6255 29.2499 14.8704 28.9804 14.8537 28.6644L14.0959 14.2745Z" fill="#670000"/>
<path d="M22.5112 13.7324C22.1894 13.7142 21.9208 13.9586 21.9041 14.2746L21.1461 28.6645C21.1294 28.9805 21.3743 29.25 21.6929 29.2664C21.7032 29.267 21.7134 29.2672 21.7235 29.2672C22.0287 29.2672 22.2839 29.0301 22.3 28.7242L23.058 14.3343C23.0747 14.0184 22.8299 13.7489 22.5112 13.7324Z" fill="#670000"/>
</g>
<defs>
<clipPath id="clip0_2942_7790">
<rect width="26" height="25.7797" fill="white" transform="translate(5 5.92383)"/>
</clipPath>
</defs>
</svg>
