<svg width="25" height="25" viewBox="0 0 25 25" fill="none" xmlns="http://www.w3.org/2000/svg">
  <g clip-path="url(#clip0_2915_8201)">
    <path d="M24.8156 12.1616L22.7375 10.8704L24.318 9.00147C24.4055 8.8983 24.4332 8.75682 24.3914 8.62824C24.3496 8.49966 24.2441 8.40156 24.1129 8.36952L21.7363 7.78641L22.659 5.51887C22.7098 5.39381 22.6926 5.25077 22.6129 5.14173C22.5332 5.0323 22.4031 4.97133 22.2684 4.98189L19.8285 5.16205L20.0086 2.72099C20.0187 2.58616 19.9582 2.45562 19.8488 2.37629C19.7391 2.29656 19.5969 2.27975 19.4719 2.33017L17.2055 3.25329L16.6227 0.875535C16.5906 0.743829 16.4926 0.638698 16.3641 0.59688C16.2348 0.555453 16.0945 0.582811 15.991 0.670355L14.1227 2.25122L12.832 0.172059C12.6895 -0.0573529 12.3109 -0.0573529 12.1684 0.172059L10.8777 2.25122L9.00977 0.669964C8.90625 0.58242 8.76562 0.555063 8.63633 0.59688C8.50781 0.638698 8.40977 0.74422 8.37773 0.875535L7.79492 3.25329L5.52852 2.33017C5.40352 2.27975 5.26133 2.29617 5.15156 2.37629C5.04219 2.45601 4.98164 2.58616 4.9918 2.72099L5.17188 5.16205L2.73203 4.98189C2.59687 4.97133 2.4668 5.0323 2.3875 5.14173C2.30781 5.25116 2.29063 5.39381 2.34141 5.51887L3.26406 7.78641L0.8875 8.36952C0.755859 8.40156 0.650781 8.49966 0.608984 8.62824C0.567187 8.75721 0.594922 8.89791 0.682422 9.00147L2.26289 10.8708L0.184766 12.162C0.0699219 12.2332 0 12.3586 0 12.4938C0 12.6291 0.0699219 12.7545 0.184375 12.826L2.2625 14.1173L0.682031 15.9862C0.594531 16.0894 0.566797 16.2305 0.608594 16.3595C0.650391 16.488 0.755469 16.5861 0.887109 16.6182L3.26367 17.2013L2.34102 19.4688C2.29023 19.5939 2.30742 19.7369 2.38711 19.846C2.46641 19.955 2.59453 20.0156 2.73164 20.0058L5.17148 19.8256L4.99141 22.2667C4.98125 22.4015 5.0418 22.5321 5.15117 22.6114C5.26094 22.6911 5.40273 22.7083 5.52813 22.6575L7.79453 21.7344L8.37734 24.1122C8.40937 24.2435 8.50742 24.349 8.63594 24.3908C8.76523 24.4326 8.90547 24.4049 9.00898 24.3173L10.8773 22.7361L12.168 24.8152C12.2395 24.9298 12.3648 24.9997 12.5 24.9997C12.6352 24.9997 12.7605 24.9298 12.832 24.8152L14.1227 22.7361L15.9906 24.3173C16.0938 24.4049 16.2348 24.4326 16.3637 24.3908C16.4922 24.349 16.5902 24.2439 16.6223 24.1122L17.2051 21.7344L19.4715 22.6575C19.5969 22.7083 19.7391 22.6915 19.8484 22.6114C19.9578 22.5317 20.0184 22.4015 20.0082 22.2667L19.8281 19.8256L22.268 20.0058C22.4059 20.0175 22.5332 19.9554 22.6125 19.846C22.6922 19.7365 22.7094 19.5939 22.6586 19.4688L21.7359 17.2013L24.1125 16.6182C24.2437 16.5857 24.3492 16.488 24.391 16.3595C24.4328 16.2305 24.4051 16.0898 24.3176 15.9862L22.7371 14.1169L24.8152 12.8257C24.9301 12.7545 25 12.6291 25 12.4938C25 12.3586 24.9301 12.2332 24.8156 12.1616ZM21.9406 13.6921C21.8441 13.7519 21.7785 13.8512 21.7609 13.9633C21.7434 14.0755 21.7754 14.19 21.8484 14.2768L23.3137 16.0101L21.1102 16.5506C21 16.5775 20.9066 16.6514 20.8555 16.7526C20.8039 16.8538 20.7988 16.9723 20.8414 17.0778L21.6969 19.1808L19.4336 19.0135C19.318 19.0045 19.209 19.0463 19.1285 19.1268C19.048 19.2074 19.007 19.3187 19.0152 19.4321L19.1824 21.6965L17.0805 20.8406C16.975 20.798 16.857 20.8027 16.7555 20.8547C16.6543 20.9063 16.5809 20.9993 16.5535 21.1095L16.0133 23.3141L14.2813 21.8477C14.1945 21.7743 14.0797 21.7414 13.968 21.7598C13.8559 21.7774 13.7566 21.8431 13.6969 21.9396L12.5 23.8683L11.3023 21.9388C11.2426 21.8423 11.1434 21.7766 11.0312 21.759C11.0109 21.7559 10.9906 21.7543 10.9703 21.7543C10.8785 21.7543 10.7891 21.7868 10.718 21.8466L8.98555 23.3129L8.44531 21.1083C8.41836 20.9981 8.34453 20.9047 8.24336 20.8535C8.14219 20.8019 8.02344 20.7968 7.91836 20.8394L5.81641 21.6953L5.98359 19.4309C5.9918 19.3176 5.95078 19.2062 5.87031 19.1257C5.78984 19.0452 5.68008 19.0033 5.56523 19.0123L3.30195 19.1796L4.15742 17.0766C4.2 16.9715 4.19531 16.8527 4.14336 16.7514C4.0918 16.6502 3.99883 16.5767 3.88867 16.5494L1.68516 16.0089L3.15039 14.276C3.22383 14.1892 3.25586 14.0747 3.23828 13.9625C3.2207 13.8504 3.15508 13.7511 3.05859 13.6913L1.13008 12.4931L3.05859 11.2948C3.15508 11.235 3.2207 11.1357 3.23828 11.0236C3.25586 10.9114 3.22383 10.7969 3.15078 10.7101L1.68516 8.97685L3.88867 8.43635C3.99883 8.40938 4.0918 8.33552 4.14336 8.23429C4.19492 8.13307 4.2 8.01465 4.15742 7.90913L3.30195 5.80613L5.56523 5.9734C5.68008 5.9816 5.79023 5.94057 5.87031 5.86006C5.95078 5.77955 5.9918 5.66817 5.98359 5.55483L5.81641 3.29041L7.91836 4.14631C8.02344 4.18891 8.1418 4.18422 8.24336 4.13224C8.34453 4.08065 8.41797 3.98764 8.44531 3.87743L8.98555 1.67281L10.7176 3.13917C10.8039 3.21264 10.9184 3.24508 11.0309 3.2271C11.143 3.20951 11.2422 3.14386 11.302 3.04732L12.5 1.11902L13.6977 3.0485C13.7574 3.14503 13.8566 3.21069 13.9687 3.22827C14.0809 3.24664 14.1949 3.21381 14.282 3.14073L16.0145 1.67476L16.5547 3.87938C16.5816 3.98959 16.6555 4.083 16.7566 4.1342C16.8578 4.18578 16.9762 4.19126 17.0813 4.14827L19.1832 3.29237L19.016 5.55678C19.0078 5.67012 19.0488 5.7815 19.1293 5.86201C19.2098 5.94252 19.3199 5.98473 19.4344 5.97535L21.6977 5.80808L20.8422 7.91108C20.7996 8.01622 20.8043 8.13502 20.8562 8.23625C20.9078 8.33747 21.0008 8.41094 21.1109 8.4383L23.3145 8.97881L21.8492 10.7117C21.7758 10.7985 21.7437 10.913 21.7613 11.0251C21.7789 11.1373 21.8445 11.2366 21.941 11.2964L23.8691 12.4946L21.9406 13.6921Z"
          fill="white"/>
    <path d="M11.3281 8.97656H5.07812V9.7582H11.3281V8.97656Z" fill="white"/>
    <path d="M11.3281 10.54H5.07812V11.3217H11.3281V10.54Z" fill="white"/>
    <path d="M11.3281 12.1025H5.07812V12.8842H11.3281V12.1025Z" fill="white"/>
    <path d="M11.3281 13.666H5.07812V14.4477H11.3281V13.666Z" fill="white"/>
    <path d="M11.3281 15.2295H5.07812V16.0111H11.3281V15.2295Z" fill="white"/>
    <path d="M18.4414 8.73849L13.3628 15.3828L13.9834 15.8577L19.062 9.21334L18.4414 8.73849Z" fill="white"/>
    <path d="M14.4531 12.1027C15.0992 12.1027 15.625 11.5767 15.625 10.9303C15.625 10.2839 15.0992 9.75781 14.4531 9.75781C13.807 9.75781 13.2812 10.2839 13.2812 10.9303C13.2812 11.5767 13.807 12.1027 14.4531 12.1027ZM14.4531 10.5395C14.6684 10.5395 14.8438 10.7149 14.8438 10.9303C14.8438 11.1456 14.6684 11.3211 14.4531 11.3211C14.2379 11.3211 14.0625 11.1456 14.0625 10.9303C14.0625 10.7149 14.2379 10.5395 14.4531 10.5395Z"
          fill="white"/>
    <path d="M17.9688 12.8848C17.3227 12.8848 16.7969 13.4108 16.7969 14.0572C16.7969 14.7036 17.3227 15.2297 17.9688 15.2297C18.6148 15.2297 19.1406 14.7036 19.1406 14.0572C19.1406 13.4108 18.6148 12.8848 17.9688 12.8848ZM17.9688 14.448C17.7535 14.448 17.5781 14.2726 17.5781 14.0572C17.5781 13.8419 17.7535 13.6664 17.9688 13.6664C18.184 13.6664 18.3594 13.8419 18.3594 14.0572C18.3594 14.2726 18.184 14.448 17.9688 14.448Z"
          fill="white"/>
  </g>
  <defs>
    <clipPath id="clip0_2915_8201">
      <rect width="25" height="25" fill="white"/>
    </clipPath>
  </defs>
</svg>
