<svg width="36" height="37" viewBox="0 0 36 37" fill="none" xmlns="http://www.w3.org/2000/svg">
<rect y="0.96582" width="36" height="35.6949" rx="13" fill="#FFB052"/>
<g clip-path="url(#clip0_2942_7789)">
<path d="M11.4545 19.895V24.2217C11.4545 24.819 11.943 25.3033 12.5454 25.3033H16.9091C17.1984 25.3033 17.4758 25.1893 17.6804 24.9865L29.6803 13.0882C30.1064 12.6657 30.1064 11.9809 29.6803 11.5585L25.3167 7.23182C25.1123 7.02905 24.8347 6.91504 24.5454 6.91504C24.2561 6.91504 23.9786 7.02905 23.7741 7.23189L11.7741 19.1302C11.5694 19.333 11.4545 19.6082 11.4545 19.895ZM13.6363 20.343L24.5454 9.52639L27.3663 12.3234L16.4572 23.14H13.6363V20.343Z" fill="#926128"/>
<path d="M28.9091 17.7318C28.3066 17.7318 27.8182 18.216 27.8182 18.8134V28.5483H8.18182V9.07837H18C18.6025 9.07837 19.0909 8.59407 19.0909 7.9967C19.0909 7.39934 18.6025 6.91504 18 6.91504H7.09091C6.48844 6.91504 6 7.39934 6 7.9967V29.63C6 30.2274 6.48844 30.7116 7.09091 30.7116H28.9091C29.5116 30.7116 30 30.2274 30 29.63V18.8134C30 18.216 29.5116 17.7318 28.9091 17.7318Z" fill="#926128"/>
</g>
<defs>
<clipPath id="clip0_2942_7789">
<rect width="24" height="23.7966" fill="white" transform="translate(6 6.91504)"/>
</clipPath>
</defs>
</svg>
