<svg width="25" height="25" viewBox="0 0 25 25" fill="none" xmlns="http://www.w3.org/2000/svg">
  <path d="M8.97808 4.98008H24.6031C24.8188 4.98008 24.9935 4.80539 24.9935 4.58965C24.9935 4.37395 24.8188 4.19922 24.6031 4.19922H8.97808C8.76237 4.19922 8.58765 4.37395 8.58765 4.58965C8.58765 4.80539 8.76237 4.98008 8.97808 4.98008Z"
        fill="white"/>
  <path d="M24.6031 12.2256H8.97808C8.76237 12.2256 8.58765 12.4003 8.58765 12.616C8.58765 12.8318 8.76237 13.0064 8.97808 13.0064H24.6031C24.8188 13.0064 24.9935 12.8318 24.9935 12.616C24.9935 12.4003 24.8188 12.2256 24.6031 12.2256Z"
        fill="white"/>
  <path d="M24.6031 20.0195H8.97808C8.76237 20.0195 8.58765 20.1943 8.58765 20.41C8.58765 20.6257 8.76237 20.8004 8.97808 20.8004H24.6031C24.8188 20.8004 24.9935 20.6257 24.9935 20.41C24.9935 20.1943 24.8188 20.0195 24.6031 20.0195Z"
        fill="white"/>
  <path d="M2.33748 2.25879C1.05213 2.25879 0.00634766 3.30457 0.00634766 4.58992C0.00634766 5.87531 1.05213 6.92109 2.33748 6.92109C3.62287 6.92109 4.66865 5.87531 4.66865 4.58992C4.66865 3.30457 3.62287 2.25879 2.33748 2.25879ZM2.33748 6.16504C1.46889 6.16504 0.762402 5.45855 0.762402 4.58992C0.762402 3.72133 1.46889 3.01484 2.33748 3.01484C3.20611 3.01484 3.9126 3.72133 3.9126 4.58992C3.9126 5.45855 3.20611 6.16504 2.33748 6.16504Z"
        fill="white"/>
  <path d="M2.33748 10.2842C1.05213 10.2842 0.00634766 11.33 0.00634766 12.6153C0.00634766 13.9007 1.05213 14.9465 2.33748 14.9465C3.62287 14.9465 4.66865 13.9007 4.66865 12.6153C4.66865 11.33 3.62287 10.2842 2.33748 10.2842ZM2.33748 14.1904C1.46889 14.1904 0.762402 13.4839 0.762402 12.6153C0.762402 11.7467 1.46889 11.0402 2.33748 11.0402C3.20611 11.0402 3.9126 11.7467 3.9126 12.6153C3.9126 13.4839 3.20611 14.1904 2.33748 14.1904Z"
        fill="white"/>
  <path d="M2.33748 18.0791C1.05213 18.0791 0.00634766 19.1249 0.00634766 20.4102C0.00634766 21.6956 1.05213 22.7414 2.33748 22.7414C3.62287 22.7414 4.66865 21.6956 4.66865 20.4102C4.66865 19.1249 3.62287 18.0791 2.33748 18.0791ZM2.33748 21.9854C1.46889 21.9854 0.762402 21.2789 0.762402 20.4102C0.762402 19.5416 1.46889 18.8352 2.33748 18.8352C3.20611 18.8352 3.9126 19.5416 3.9126 20.4102C3.9126 21.2789 3.20611 21.9854 2.33748 21.9854Z"
        fill="white"/>
</svg>
