<svg width="35" height="35" viewBox="0 0 35 35" fill="none" xmlns="http://www.w3.org/2000/svg">
  <path fill-rule="evenodd" clip-rule="evenodd"
        d="M8.91341 8.79391C6.17974 11.5276 6.17974 15.9597 8.91341 18.6934C11.6471 21.4271 16.0792 21.4271 18.8129 18.6934C21.5466 15.9597 21.5466 11.5276 18.8129 8.79391C16.0792 6.06024 11.6471 6.06024 8.91341 8.79391ZM6.43854 21.1683C2.33803 17.0678 2.33803 10.4195 6.43854 6.31903C10.539 2.21853 17.1873 2.21853 21.2878 6.31903C25.0795 10.1108 25.365 16.0811 22.1443 20.2009L23.7717 21.1773L29.7993 27.205L27.3245 29.6798L21.2968 23.6522L20.3204 22.0248C16.2006 25.2455 10.2303 24.96 6.43854 21.1683Z"
        fill="black" fill-opacity="0.5"/>
</svg>
