<svg xmlns="http://www.w3.org/2000/svg" fill="white">
<symbol width="22" height="22" viewBox="0 0 22 22" id="cart"/>
<path d="M10.0834 8.24984H11.9167V5.49984H14.6667V3.6665H11.9167V0.916504H10.0834V3.6665H7.33335V5.49984H10.0834V8.24984ZM6.41669 16.4998C5.40835 16.4998 4.59252 17.3248 4.59252 18.3332C4.59252 19.3415 5.40835 20.1665 6.41669 20.1665C7.42502 20.1665 8.25002 19.3415 8.25002 18.3332C8.25002 17.3248 7.42502 16.4998 6.41669 16.4998ZM15.5834 16.4998C14.575 16.4998 13.7592 17.3248 13.7592 18.3332C13.7592 19.3415 14.575 20.1665 15.5834 20.1665C16.5917 20.1665 17.4167 19.3415 17.4167 18.3332C17.4167 17.3248 16.5917 16.4998 15.5834 16.4998ZM7.42502 11.9165H14.2542C14.9417 11.9165 15.5467 11.5407 15.8584 10.9723L19.3967 4.5465L17.8017 3.6665L14.2542 10.0832H7.81919L3.91419 1.83317H0.916687V3.6665H2.75002L6.05002 10.624L4.81252 12.8607C4.14335 14.089 5.02335 15.5832 6.41669 15.5832H17.4167V13.7498H6.41669L7.42502 11.9165Z" fill="black"/>
</svg>
