<svg width="27" height="27" viewBox="0 0 28 29" fill="none" xmlns="http://www.w3.org/2000/svg">
  <path d="M13.6667 11.0002H16.3334V7.00016H20.3334V4.3335H16.3334V0.333496H13.6667V4.3335H9.66671V7.00016H13.6667V11.0002ZM8.33337 23.0002C6.86671 23.0002 5.68004 24.2002 5.68004 25.6668C5.68004 27.1335 6.86671 28.3335 8.33337 28.3335C9.80004 28.3335 11 27.1335 11 25.6668C11 24.2002 9.80004 23.0002 8.33337 23.0002ZM21.6667 23.0002C20.2 23.0002 19.0134 24.2002 19.0134 25.6668C19.0134 27.1335 20.2 28.3335 21.6667 28.3335C23.1334 28.3335 24.3334 27.1335 24.3334 25.6668C24.3334 24.2002 23.1334 23.0002 21.6667 23.0002ZM9.80004 16.3335H19.7334C20.7334 16.3335 21.6134 15.7868 22.0667 14.9602L27.2134 5.6135L24.8934 4.3335L19.7334 13.6668H10.3734L4.69337 1.66683H0.333374V4.3335H3.00004L7.80004 14.4535L6.00004 17.7068C5.02671 19.4935 6.30671 21.6668 8.33337 21.6668H24.3334V19.0002H8.33337L9.80004 16.3335Z"
        fill="black"/>
</svg>
