<svg width="24" height="24" viewBox="0 0 24 24" fill="none" xmlns="http://www.w3.org/2000/svg">
<path fill-rule="evenodd" clip-rule="evenodd" d="M6.11196 6.0302C4.23744 7.90472 4.23744 10.9439 6.11196 12.8184C7.98647 14.6929 11.0257 14.6929 12.9002 12.8184C14.7747 10.9439 14.7747 7.90472 12.9002 6.0302C11.0257 4.15569 7.98647 4.15569 6.11196 6.0302ZM4.4149 14.5155C1.60312 11.7037 1.60312 7.14492 4.4149 4.33315C7.22667 1.52137 11.7855 1.52137 14.5972 4.33315C17.1973 6.93321 17.3931 11.0271 15.1846 13.8521L16.3005 14.5217L20.4337 18.6549L18.7367 20.352L14.6035 16.2188L13.9339 15.1028C11.1089 17.3113 7.01496 17.1155 4.4149 14.5155Z" fill="#130F1C"/>
</svg>
