<svg width="16" height="16" viewBox="0 0 16 16" fill="none" xmlns="http://www.w3.org/2000/svg">
<path d="M7.99999 14C11.3137 14 14 11.3137 14 7.99999C14 4.68629 11.3137 2 7.99999 2C4.68629 2 2 4.68629 2 7.99999C2 11.3137 4.68629 14 7.99999 14Z" fill="white"/>
<path d="M7.99999 13C10.7614 13 13 10.7614 13 7.99999C13 5.23857 10.7614 3 7.99999 3C5.23857 3 3 5.23857 3 7.99999C3 10.7614 5.23857 13 7.99999 13Z" fill="#2C9462"/>
<path d="M8 11C9.65682 11 11 9.65689 11 8C11 6.34314 9.65682 5 8 5C6.34314 5 5 6.34314 5 8C5 9.65689 6.34314 11 8 11Z" fill="white"/>
<path d="M8.00002 10C9.1046 10 10 9.1046 10 8.00002C10 6.89544 9.1046 6 8.00002 6C6.89544 6 6 6.89544 6 8.00002C6 9.1046 6.89544 10 8.00002 10Z" fill="#2C9462"/>
<path d="M12.9952 6.90381H9.34033V8.93426H12.9952V6.90381Z" fill="#2C9462"/>
</svg>
