<svg width="28" height="28" viewBox="0 0 28 28" fill="none" xmlns="http://www.w3.org/2000/svg">
<g clip-path="url(#clip0_2635_8312)">
<path d="M14 0C6.28037 0 0 6.28037 0 14C0 21.7196 6.28037 28 14 28C21.7196 28 28 21.7196 28 14C28 6.28037 21.7196 0 14 0ZM14 26.9231C6.87433 26.9231 1.07691 21.1257 1.07691 14C1.07691 6.87433 6.87433 1.07691 14 1.07691C21.1257 1.07691 26.9231 6.87433 26.9231 14C26.9231 21.1257 21.1257 26.9231 14 26.9231Z" fill="black"/>
<path d="M13.4615 6.46143C12.2813 6.46143 11.1799 6.92977 10.3604 7.77972C10.154 7.99371 10.16 8.33447 10.3743 8.54086C10.5881 8.74725 10.9291 8.74124 11.1354 8.52697C11.7501 7.88959 12.5762 7.53833 13.4615 7.53833C15.2431 7.53833 16.6923 8.98761 16.6923 10.7691C16.6923 11.8779 16.1757 12.2299 15.2376 12.8688C14.7432 13.2056 14.1827 13.5871 13.6101 14.1563C12.0728 15.6833 12.5495 17.3853 13.0161 18.0717C13.12 18.2244 13.288 18.3063 13.4594 18.3063C13.5625 18.3063 13.6669 18.2766 13.7592 18.215C14.005 18.051 14.0713 17.7174 13.9093 17.47C13.8244 17.3403 13.1147 16.1664 14.3689 14.9204C14.8713 14.4214 15.388 14.0694 15.8439 13.7588C16.834 13.0845 17.7693 12.4474 17.7693 10.7692C17.7692 8.39386 15.8367 6.46143 13.4615 6.46143Z" fill="black"/>
<path d="M13.4056 19.9229C13.1082 19.9229 12.8672 20.164 12.8672 20.4613V20.9998C12.8672 21.2971 13.1083 21.5382 13.4056 21.5382C13.703 21.5382 13.9441 21.2971 13.9441 20.9998V20.4613C13.9441 20.164 13.703 19.9229 13.4056 19.9229Z" fill="black"/>
</g>
<defs>
<clipPath id="clip0_2635_8312">
<rect width="28" height="28" fill="white"/>
</clipPath>
</defs>
</svg>
